<?xml version="1.0" encoding="UTF-8" standalone="no"?>
<svg width="64px" height="63px" viewBox="0 0 64 63" version="1.1" xmlns="http://www.w3.org/2000/svg" xmlns:xlink="http://www.w3.org/1999/xlink" xmlns:sketch="http://www.bohemiancoding.com/sketch/ns">
    <!-- Generator: Sketch 3.2.2 (9983) - http://www.bohemiancoding.com/sketch -->
    <title>Imported Layers 6 + Fill 31 + Fill 32</title>
    <desc>Created with Sketch.</desc>
    <defs></defs>
    <g id="Page-1" stroke="none" stroke-width="1" fill="none" fill-rule="evenodd" sketch:type="MSPage">
        <g id="Imported-Layers-6-+-Fill-31-+-Fill-32" sketch:type="MSLayerGroup" fill="#4A4A4A">
            <g id="Imported-Layers-6" sketch:type="MSShapeGroup">
                <path d="M18.7624023,15.8444844 L20.2256836,15.8444844 L20.2256836,18.952717 L4.70712891,18.952717 L4.70712891,15.8665084 L6.14501953,15.8665084 C3.73720703,11.7427146 4.23203125,8.09872902 7.61757812,4.89325659 C7.67041016,4.89738609 7.72333984,4.90151559 7.77626953,4.90574341 C7.78632812,5.04132854 7.80507812,5.17701199 7.80527344,5.31269544 C7.80751953,6.60719424 7.79648437,7.90188969 7.81728516,9.19609353 C7.82050781,9.39824221 7.92011719,9.63706475 8.05244141,9.79182254 C8.43222656,10.2358417 8.8515625,10.6454484 9.25546875,11.0686235 C9.29716797,11.0543669 9.33886719,11.0402086 9.38056641,11.025952 L9.38056641,10.5201871 C9.38095703,8.07867146 9.36835937,5.63695923 9.38613281,3.19554197 C9.39765625,1.6183693 10.5606445,0.345894484 12.1417969,0.122311751 C13.5647461,-0.078853717 15.0257812,0.860115108 15.4527344,2.29826139 C15.5758789,2.71298082 15.5493164,3.17066667 15.6285156,3.60170743 C15.6583008,3.76364269 15.7561523,3.98171942 15.8858398,4.04631655 C20.2651367,6.22796882 21.5604492,11.772211 18.8411133,15.64853 C18.8157227,15.6847122 18.8066406,15.7323981 18.7624023,15.8444844" id="Fill-1"></path>
                <path d="M3.17558594,33.0903429 C2.9890625,32.1111607 3.27255859,31.3571343 3.93554687,30.6492206 C4.72480469,29.8066067 5.45009766,28.8903501 6.11035156,27.9407626 C7.38935547,26.1011703 7.69589844,23.9635659 7.80703125,21.78447 C7.82626953,21.4085875 7.82392578,21.0315252 7.83291016,20.6549544 C7.83320312,20.6413861 7.84775391,20.6281127 7.87353516,20.5845564 L17.1445312,20.5845564 C17.181543,21.2395731 17.2296875,21.902554 17.2547852,22.5664197 C17.3615234,25.3911918 18.4355469,27.7978034 20.3388672,29.8509496 C20.5830078,30.1142542 20.787793,30.4190504 21.0526367,30.6575779 C21.7767578,31.3092518 22.0126953,32.1093909 21.8238281,33.0903429 L3.17558594,33.0903429" id="Fill-2"></path>
                <path d="M12.5498047,34.7133333 C16.0973633,34.7133333 19.6449219,34.7127434 23.1924805,34.7137266 C24.3861328,34.7140216 24.9922852,35.3255803 24.9938477,36.5275588 C24.9951172,37.4614149 24.9998047,38.3953693 24.9924805,39.3292254 C24.9845703,40.3323981 24.3349609,40.9915444 23.3371094,40.992036 C16.1117187,40.9956739 8.88632812,40.9956739 1.6609375,40.992036 C0.6640625,40.9915444 0.0149414062,40.3311199 0.00751953125,39.3271607 C0.000390625,38.3605635 0.0025390625,37.3938681 0.0068359375,36.427271 C0.0116210937,35.3599928 0.649707031,34.7154964 1.71171875,34.7146115 C5.32441406,34.7114652 8.93710937,34.7134317 12.5498047,34.7133333" id="Fill-3"></path>
            </g>
            <path d="M39.7437313,32.4912077 C38.3381821,33.5937338 35.0896821,34.4478199 33.1668501,34.8796179 C32.7444075,34.9744173 32.7285509,35.4478199 33.1435141,35.5613415 C34.971805,36.0608957 38.001305,37.0326639 39.3212886,38.2796179 C41.0044772,39.869811 42.63501,44.7984886 43.4478829,47.5577754 C43.5606739,47.9396476 44.2484895,47.9182508 44.3238829,47.5304351 C44.8609116,44.7595584 46.0199362,39.8528719 47.7121001,38.3860072 C49.2047108,37.0923965 52.577969,36.1099299 54.6844977,35.5943281 C55.1242927,35.4867501 55.0970673,34.9827382 54.6479977,34.9036892 C52.4487231,34.5164678 48.9273706,33.7322181 47.7121001,32.5262746 C46.2167968,31.0427679 45.0102026,26.4819953 44.40526,23.7940309 C44.3178993,23.4050265 43.6226042,23.400866 43.5277641,23.7883846 C42.8638829,26.4956654 41.5139813,31.1025005 39.7437313,32.4912077" id="Fill-31" sketch:type="MSShapeGroup"></path>
            <path d="M51.945947,51.1496368 C50.9065945,51.96509 48.5038773,52.5968879 47.0818732,52.9160559 C46.769529,52.9858924 46.7578609,53.3362639 47.0648199,53.4200677 C48.4168159,53.7897557 50.6573773,54.5083293 51.6336027,55.4304689 C52.8784921,56.6066948 54.084488,60.2518657 54.6855413,62.2922817 C54.7687134,62.5748969 55.2776191,62.5591465 55.3332667,62.2720737 C55.7305781,60.2230395 56.5877298,56.5939162 57.8392011,55.5092208 C58.9431765,54.5523114 61.4377421,53.8260113 62.9958732,53.4444362 C63.3210822,53.3647929 63.3010372,52.9921331 62.968947,52.9338865 C61.3423036,52.647408 58.7379388,52.0673189 57.8392011,51.1754912 C56.7331314,50.0783144 55.8409757,46.7053575 55.3937011,44.7172446 C55.328779,44.4298746 54.8147872,44.4266056 54.7444798,44.7133813 C54.2535249,46.7154615 53.2551601,50.1222966 51.945947,51.1496368" id="Fill-32" sketch:type="MSShapeGroup"></path>
        </g>
    </g>
</svg>