<?xml version="1.0" encoding="UTF-8" standalone="no"?>
<svg width="58px" height="61px" viewBox="0 0 58 61" version="1.1" xmlns="http://www.w3.org/2000/svg" xmlns:xlink="http://www.w3.org/1999/xlink" xmlns:sketch="http://www.bohemiancoding.com/sketch/ns">
    <!-- Generator: Sketch 3.2.2 (9983) - http://www.bohemiancoding.com/sketch -->
    <title>Imported Layers 4 + Fill 27 + Fill 28</title>
    <desc>Created with Sketch.</desc>
    <defs></defs>
    <g id="Page-1" stroke="none" stroke-width="1" fill="none" fill-rule="evenodd" sketch:type="MSPage">
        <g id="Imported-Layers-4-+-Fill-27-+-Fill-28" sketch:type="MSLayerGroup" fill="#FFFFFF">
            <g id="Imported-Layers-4" transform="translate(33.000000, 0.000000)" sketch:type="MSShapeGroup">
                <path d="M18.7624023,15.8444844 L20.2256836,15.8444844 L20.2256836,18.952717 L4.70712891,18.952717 L4.70712891,15.8665084 L6.14501953,15.8665084 C3.73720703,11.7427146 4.23203125,8.09872902 7.61757812,4.89325659 C7.67041016,4.89738609 7.72333984,4.90151559 7.77626953,4.90574341 C7.78632812,5.04132854 7.80507812,5.17701199 7.80527344,5.31269544 C7.80751953,6.60719424 7.79648437,7.90188969 7.81728516,9.19609353 C7.82050781,9.39824221 7.92011719,9.63706475 8.05244141,9.79182254 C8.43222656,10.2358417 8.8515625,10.6454484 9.25546875,11.0686235 C9.29716797,11.0543669 9.33886719,11.0402086 9.38056641,11.025952 L9.38056641,10.5201871 C9.38095703,8.07867146 9.36835937,5.63695923 9.38613281,3.19554197 C9.39765625,1.6183693 10.5606445,0.345894484 12.1417969,0.122311751 C13.5647461,-0.078853717 15.0257812,0.860115108 15.4527344,2.29826139 C15.5758789,2.71298082 15.5493164,3.17066667 15.6285156,3.60170743 C15.6583008,3.76364269 15.7561523,3.98171942 15.8858398,4.04631655 C20.2651367,6.22796882 21.5604492,11.772211 18.8411133,15.64853 C18.8157227,15.6847122 18.8066406,15.7323981 18.7624023,15.8444844" id="Fill-1"></path>
                <path d="M3.17558594,33.0903429 C2.9890625,32.1111607 3.27255859,31.3571343 3.93554687,30.6492206 C4.72480469,29.8066067 5.45009766,28.8903501 6.11035156,27.9407626 C7.38935547,26.1011703 7.69589844,23.9635659 7.80703125,21.78447 C7.82626953,21.4085875 7.82392578,21.0315252 7.83291016,20.6549544 C7.83320312,20.6413861 7.84775391,20.6281127 7.87353516,20.5845564 L17.1445312,20.5845564 C17.181543,21.2395731 17.2296875,21.902554 17.2547852,22.5664197 C17.3615234,25.3911918 18.4355469,27.7978034 20.3388672,29.8509496 C20.5830078,30.1142542 20.787793,30.4190504 21.0526367,30.6575779 C21.7767578,31.3092518 22.0126953,32.1093909 21.8238281,33.0903429 L3.17558594,33.0903429" id="Fill-2"></path>
                <path d="M12.5498047,34.7133333 C16.0973633,34.7133333 19.6449219,34.7127434 23.1924805,34.7137266 C24.3861328,34.7140216 24.9922852,35.3255803 24.9938477,36.5275588 C24.9951172,37.4614149 24.9998047,38.3953693 24.9924805,39.3292254 C24.9845703,40.3323981 24.3349609,40.9915444 23.3371094,40.992036 C16.1117187,40.9956739 8.88632812,40.9956739 1.6609375,40.992036 C0.6640625,40.9915444 0.0149414062,40.3311199 0.00751953125,39.3271607 C0.000390625,38.3605635 0.0025390625,37.3938681 0.0068359375,36.427271 C0.0116210937,35.3599928 0.649707031,34.7154964 1.71171875,34.7146115 C5.32441406,34.7114652 8.93710937,34.7134317 12.5498047,34.7133333" id="Fill-3"></path>
            </g>
            <path d="M13.7437313,30.4912077 C12.3381821,31.5937338 9.08968209,32.4478199 7.16685012,32.8796179 C6.7444075,32.9744173 6.72855094,33.4478199 7.14351406,33.5613415 C8.97180504,34.0608957 12.001305,35.0326639 13.3212886,36.2796179 C15.0044772,37.869811 16.63501,42.7984886 17.4478829,45.5577754 C17.5606739,45.9396476 18.2484895,45.9182508 18.3238829,45.5304351 C18.8609116,42.7595584 20.0199362,37.8528719 21.7121001,36.3860072 C23.2047108,35.0923965 26.577969,34.1099299 28.6844977,33.5943281 C29.1242927,33.4867501 29.0970673,32.9827382 28.6479977,32.9036892 C26.4487231,32.5164678 22.9273706,31.7322181 21.7121001,30.5262746 C20.2167968,29.0427679 19.0102026,24.4819953 18.40526,21.7940309 C18.3178993,21.4050265 17.6226042,21.400866 17.5277641,21.7883846 C16.8638829,24.4956654 15.5139813,29.1025005 13.7437313,30.4912077" id="Fill-27" sketch:type="MSShapeGroup"></path>
            <path d="M5.945947,49.1496368 C4.90659454,49.96509 2.50387733,50.5968879 1.08187323,50.9160559 C0.769528965,50.9858924 0.757860932,51.3362639 1.06481995,51.4200677 C2.41681585,51.7897557 4.65737733,52.5083293 5.63360274,53.4304689 C6.87849208,54.6066948 8.08448798,58.2518657 8.68554126,60.2922817 C8.76871339,60.5748969 9.27761913,60.5591465 9.33326667,60.2720737 C9.73057815,58.2230395 10.5877298,54.5939162 11.8392011,53.5092208 C12.9431765,52.5523114 15.4377421,51.8260113 16.9958732,51.4444362 C17.3210822,51.3647929 17.3010372,50.9921331 16.968947,50.9338865 C15.3423036,50.647408 12.7379388,50.0673189 11.8392011,49.1754912 C10.7331314,48.0783144 9.84097569,44.7053575 9.3937011,42.7172446 C9.32877897,42.4298746 8.81478716,42.4266056 8.74447978,42.7133813 C8.25352487,44.7154615 7.25516011,48.1222966 5.945947,49.1496368" id="Fill-28" sketch:type="MSShapeGroup"></path>
        </g>
    </g>
</svg>